<svg width="64" height="71" viewBox="0 0 64 71" fill="none" xmlns="http://www.w3.org/2000/svg">
<path d="M62.0512 52.8276C64.5046 54.2326 64.2513 60.6375 63.399 61.4832H31.9996H0.601222C-0.251312 60.6375 -0.504725 54.233 1.94894 52.8276C8.79709 48.9047 11.2144 38.2641 12.023 27.8189C12.8314 17.3733 21.7294 9.34741 31.9999 9.34741C42.2707 9.34741 51.1691 17.3735 51.9775 27.819C52.7858 38.2641 55.2027 48.9048 62.0512 52.8276Z" fill="#F9AC66"/>
<path d="M31.9996 71C37.2948 71 41.588 66.7387 41.588 61.4829H31.9996H22.4121C22.4123 66.7387 26.7048 71 31.9996 71Z" fill="#F9AC66"/>
<path d="M31.9999 9.34713C34.5931 9.34713 36.7085 7.24761 36.7085 4.67374C36.7085 2.0997 34.5935 0 31.9999 0C29.407 0 27.2913 2.09935 27.2913 4.67374C27.2913 7.24779 29.4068 9.34713 31.9999 9.34713Z" fill="#F9AC66"/>
</svg>
