<svg width="106" height="74" viewBox="0 0 106 74" fill="none" xmlns="http://www.w3.org/2000/svg">
<path d="M45.7356 0.0306487C45.2823 0.0570932 43.6806 0.136427 42.1846 0.21576C34.7655 0.612429 28.0867 1.4851 25.261 2.45032C23.7047 2.97922 22.0425 3.93122 20.8488 5.00222C18.6729 6.91945 18.2952 7.60701 14.5025 16.3337C13.6412 18.3303 12.8706 20.0359 12.7799 20.1285C12.659 20.2607 11.5862 20.3136 8.51878 20.3401L4.40877 20.3797L3.39638 20.8028C-0.199887 22.2837 -1.13673 26.3562 1.5378 28.8816C2.88262 30.151 4.33322 30.627 6.91709 30.627H8.26191L7.94459 31.3145C6.01047 35.4928 5.01318 38.5339 4.52965 41.6015C4.28789 43.2278 4.25767 44.5104 4.25767 56.0137V68.641L4.62031 69.5533C5.34561 71.3912 7.02286 72.9515 8.97209 73.5994C10.06 73.9696 12.0848 74.0886 13.2937 73.877C15.3184 73.5068 17.3886 72.1449 18.2801 70.6111C19.0054 69.3682 19.1565 68.6013 19.1867 66.2478L19.2169 64.0529L20.048 64.1322C27.4218 64.9123 33.2998 65.3487 40.8247 65.6924C45.5391 65.904 60.4379 65.904 65.1524 65.6924C72.5262 65.3487 81.2147 64.7008 86.0198 64.119L86.6393 64.0529L86.7299 66.3403C86.8206 68.9055 87.0473 69.7914 87.8783 70.9417C90.0089 73.8374 94.2549 74.829 97.8058 73.2556C99.2111 72.6341 100.556 71.3119 101.175 69.9236C101.78 68.5881 101.825 67.57 101.75 55.2072C101.689 42.5931 101.689 42.6196 100.888 39.1157C100.45 37.2249 99.9515 35.7969 98.788 33.0731L97.7756 30.6931L99.5888 30.6005C102.112 30.4815 103.23 30.0849 104.469 28.8552C107.084 26.2504 106.147 22.2837 102.581 20.8028L101.568 20.3797L97.4432 20.3401C93.3936 20.3004 93.3181 20.2872 93.1216 20.0095C93.0007 19.8508 92.3812 18.5022 91.7466 17.008C89.616 12.01 87.9085 8.36068 87.1984 7.31612C85.8082 5.21378 83.2395 3.29655 80.716 2.45032C78.0566 1.53799 71.6498 0.665318 64.3213 0.202538C62.2058 0.0703155 47.443 -0.0619072 45.7356 0.0306487ZM61.6014 7.22356C67.0412 7.47479 73.5235 8.04334 77.5126 8.6119C79.0841 8.83668 80.0209 9.24657 80.5649 9.98702C80.7765 10.2515 81.8493 12.8563 82.9675 15.7652C84.0705 18.6608 85.4758 22.178 86.0651 23.5663C86.6544 24.9546 87.1379 26.2636 87.1379 26.4752C87.1379 27.3479 86.4882 27.7181 84.4181 28.0354C83.6323 28.1676 82.8768 28.2866 82.7257 28.3263C82.5444 28.366 82.4386 28.2602 82.3026 27.89C81.6378 26.0917 80.0663 24.3993 78.4344 23.725C77.1046 23.1828 74.279 22.9713 71.3023 23.1961C69.5041 23.3283 69.1113 23.4076 68.2953 23.7514C66.4065 24.5712 64.8653 26.5413 64.3364 28.8552C64.1853 29.5163 64.0191 30.1245 63.9586 30.2039C63.8982 30.2964 63.5809 30.3625 63.2636 30.3625C62.5685 30.3625 62.6289 30.4683 62.2058 28.247C61.7828 26.0256 61.1028 24.7431 59.6673 23.487C58.3527 22.3366 57.5821 22.0722 54.9227 21.8871C52.5503 21.7152 49.4678 21.9003 48.2439 22.297C46.7782 22.7862 45.1009 24.3861 44.3756 25.9992C44.2094 26.3826 43.9223 27.414 43.7561 28.2999C43.3481 30.4683 43.4086 30.3625 42.7135 30.3625C42.3962 30.3625 42.0789 30.2964 42.0184 30.2039C41.958 30.1245 41.7918 29.5163 41.6407 28.8552C41.1571 26.7793 39.8728 24.9679 38.2106 24.0423C36.9716 23.3415 35.9138 23.1696 32.6651 23.1696C28.4644 23.1696 27.3614 23.4341 25.7899 24.8224C24.9588 25.5629 24.0522 26.8851 23.6745 27.89C23.5385 28.2602 23.4327 28.366 23.2514 28.3263C23.1003 28.2866 22.3448 28.1676 21.559 28.0354C19.4738 27.7181 18.8392 27.3479 18.8392 26.462C18.8392 26.1314 21.0906 20.2872 24.3242 12.2084C25.0948 10.2779 25.4575 9.7358 26.349 9.22013C27.0743 8.79701 27.7543 8.66479 31.1088 8.28135C35.521 7.79212 39.3288 7.50123 45.5089 7.1839C47.5186 7.07812 59.1384 7.10456 61.6014 7.22356ZM20.8942 38.481C22.0123 38.9173 23.1758 39.9222 23.7802 40.9404C24.158 41.5882 24.2033 41.7998 24.2033 42.9898C24.2033 44.1401 24.158 44.4046 23.7953 45.0657C22.1181 48.2126 17.6605 49.0192 14.7896 46.692C13.3239 45.502 12.6137 43.836 12.9461 42.289C13.6261 39.0099 17.5094 37.1456 20.8942 38.481ZM89.7218 38.5207C92.6381 39.7107 93.8771 42.6328 92.5323 45.1583C92.351 45.502 91.807 46.1235 91.2933 46.573C90.0995 47.6308 89.072 48.001 87.3646 48.001C85.7931 47.9878 84.7052 47.6308 83.6172 46.7582C80.2325 44.0476 81.4262 39.4991 85.8535 38.2033C86.8659 37.9125 88.5885 38.0447 89.7218 38.5207Z" fill="#165954"/>
<path d="M51.6286 9.22007C49.6491 9.55063 47.7906 10.8464 46.8839 12.5124C46.4457 13.319 46.4155 13.4512 46.4155 14.9585C46.4155 16.4659 46.4457 16.5981 46.8839 17.4047C48.9238 21.1466 54.3938 22.006 57.7181 19.1103C58.9571 18.0261 59.5011 16.9551 59.6069 15.4081C59.7731 12.8165 58.4283 10.7406 55.935 9.72252C54.4845 9.11429 53.1245 8.96885 51.6286 9.22007Z" fill="#165954"/>
<path d="M30.7615 10.5821C27.4674 11.4151 25.3822 14.2579 25.9261 17.1536C26.6665 21.0806 31.4112 23.2226 35.5363 21.5037C37.1985 20.8029 38.6339 19.203 39.0873 17.5503C39.329 16.6247 39.2081 15.038 38.8153 14.1257C38.1806 12.6712 36.6998 11.3887 35.0075 10.7805C33.9648 10.4235 31.789 10.3177 30.7615 10.5821Z" fill="#165954"/>
<path d="M71.8312 10.5425C67.7212 11.3888 65.5302 15.4877 67.4038 18.8065C68.4162 20.5915 70.1841 21.7286 72.4205 22.0327C75.3217 22.4294 78.2228 21.0939 79.4468 18.8065C80.6707 16.5058 80.2476 14.0465 78.2984 12.2614C77.3767 11.4152 76.3341 10.8599 75.1403 10.5822C74.279 10.3839 72.7076 10.3574 71.8312 10.5425Z" fill="#165954"/>
</svg>
