<svg width="99" height="87" viewBox="0 0 99 87" fill="none" xmlns="http://www.w3.org/2000/svg">
<path d="M89.7184 32.625C89.7166 31.1834 89.0641 29.8013 87.9041 28.782C86.7441 27.7626 85.1714 27.1892 83.531 27.1876H71.156V16.3126C71.1541 14.871 70.5016 13.4889 69.3417 12.4695C68.1817 11.4502 66.609 10.8768 64.9685 10.8751H15.4687C13.8283 10.8768 12.2556 11.4502 11.0956 12.4695C9.93562 13.4889 9.28313 14.871 9.28125 16.3126V59.8124C9.28123 60.3257 9.44658 60.8286 9.75815 61.2627C10.0697 61.6969 10.5148 62.0447 11.0419 62.2659C11.569 62.487 12.1566 62.5725 12.7367 62.5125C13.3168 62.4525 13.8657 62.2494 14.3199 61.9267L27.8437 52.3188L27.8441 62.5312C27.8459 63.9728 28.4984 65.3549 29.6584 66.3742C30.8184 67.3936 32.3911 67.967 34.0315 67.9687H70.2236L84.6802 78.2391C85.1344 78.5618 85.6833 78.7649 86.2634 78.825C86.8435 78.885 87.4311 78.7995 87.9582 78.5783C88.4853 78.3571 88.9303 78.0093 89.2419 77.5752C89.5535 77.141 89.7188 76.6382 89.7188 76.1249L89.7184 32.625ZM73.2626 63.1357C72.7121 62.7445 72.0256 62.5312 71.3177 62.5312H34.0315L34.0312 51.6562H64.9685C66.609 51.6546 68.1817 51.0812 69.3417 50.0618C70.5016 49.0424 71.1541 47.6603 71.156 46.2187V32.625H83.531L83.5314 70.4309L73.2626 63.1357Z" fill="#F9AC66"/>
</svg>
