<svg width="109" height="69" viewBox="0 0 109 69" fill="none" xmlns="http://www.w3.org/2000/svg">
<path d="M92.6675 20.2679C92.5 19.5827 92.9263 18.9218 93.6196 18.7917L95.205 18.4944C95.8983 18.3643 96.596 18.8144 96.7635 19.4996C96.931 20.1848 96.5047 20.8457 95.8115 20.9757L94.226 21.2731C93.5328 21.4032 92.835 20.9531 92.6675 20.2679Z" fill="#165954"/>
<ellipse cx="67.995" cy="40.2446" rx="8.97104" ry="7.85912" fill="#165954"/>
<ellipse cx="67.9947" cy="40.3074" rx="7.2486" ry="6.41304" fill="#FAC08A"/>
<ellipse cx="99.9532" cy="38.8614" rx="8.20275" ry="7.85912" fill="#165954"/>
<ellipse cx="99.9535" cy="38.9243" rx="6.62782" ry="6.41304" fill="#FAC08A"/>
<path d="M68.3353 40.2102C68.1078 40.071 68.0581 39.7892 68.2243 39.5806L75.5605 30.3739C75.7267 30.1654 76.0458 30.1091 76.2734 30.2482C76.5009 30.3873 76.5506 30.6692 76.3844 30.8778L69.0481 40.0845C68.8819 40.293 68.5628 40.3493 68.3353 40.2102Z" fill="#165954"/>
<path d="M75.673 30.6401C75.5944 30.407 75.7238 30.1681 75.962 30.1065L94.4381 25.3295C94.6763 25.268 94.933 25.407 95.0115 25.6402C95.0901 25.8733 94.9607 26.1122 94.7225 26.1738L76.2464 30.9507C76.0082 31.0123 75.7515 30.8733 75.673 30.6401Z" fill="#165954"/>
<path d="M81.9246 39.7802C81.7403 39.5986 81.7564 39.3224 81.9605 39.1634L95.8832 28.3207C96.0874 28.1617 96.4024 28.18 96.5867 28.3617C96.771 28.5433 96.7549 28.8195 96.5507 28.9785L82.6281 39.8212C82.4239 39.9802 82.1089 39.9619 81.9246 39.7802Z" fill="#165954"/>
<path d="M93.5424 20.9075C93.8979 20.8032 94.2933 20.9992 94.4255 21.3452L100.735 37.8506C100.867 38.1967 100.686 38.5617 100.331 38.666C99.9753 38.7703 99.5799 38.5743 99.4476 38.2283L93.1382 21.7229C93.0059 21.3768 93.1869 21.0118 93.5424 20.9075Z" fill="#165954"/>
<path d="M81.7918 38.022C81.5373 38.1188 81.233 37.9997 81.1119 37.7557L75.5575 26.5599C75.4365 26.3159 75.5446 26.0397 75.7991 25.9428C76.0536 25.8459 76.3579 25.9651 76.4789 26.209L82.0334 37.4049C82.1544 37.6488 82.0463 37.9251 81.7918 38.022Z" fill="#165954"/>
<path d="M68.0669 39.8674C68.0669 39.6243 68.2639 39.4272 68.507 39.4272H81.4948C81.7379 39.4272 81.9349 39.6243 81.9349 39.8674C81.9349 40.1104 81.7379 40.3075 81.4948 40.3075H68.507C68.2639 40.3075 68.0669 40.1104 68.0669 39.8674Z" fill="#165954"/>
<path d="M85.9757 26.5086C87.915 27.3497 88.8325 29.5011 88.0347 31.5364L85.1214 38.9681C84.7421 39.9359 83.6276 40.4777 82.6321 40.1783C81.6367 39.8788 81.1373 38.8514 81.5167 37.8836L85.9757 26.5086Z" fill="#165954" stroke="#FAC08A"/>
<path d="M86.6133 26.5418C88.2856 27.2404 88.9469 29.088 88.1044 30.6839L75.8717 25.5738C75.0399 25.2263 74.715 24.3027 75.146 23.511C75.5769 22.7192 76.6006 22.359 77.4324 22.7065L86.6133 26.5418Z" fill="#165954" stroke="#FAC08A"/>
<path d="M74.0215 25.7209C74.0215 25.5109 74.1917 25.3407 74.4017 25.3407H77.4711V26.1011H74.4017C74.1917 26.1011 74.0215 25.9309 74.0215 25.7209Z" fill="#165954" stroke="#165954" stroke-width="0.880221"/>
<path d="M82.0118 21.4878C80.3387 24.7883 79.5955 27.3784 77.0597 26.3919C74.0455 26.3919 73.8005 24.7954 75.7549 18.605C78.4821 13.0093 80.7699 12.329 83.4253 13.3978C86.0808 14.781 83.6848 18.1873 82.0118 21.4878Z" fill="#165954"/>
<path d="M85.3283 28.8337L88.0972 28.917L88.1836 28.917L88.1836 29.1871L88.1836 29.572L88.184 30.3417L88.0972 30.7266L87.7999 31.4964L87.3204 32.2285L84.4384 31.2625L85.3283 28.8337Z" fill="#165954"/>
<ellipse cx="86.2635" cy="8.78777" rx="4.22497" ry="4.23381" fill="#165954"/>
<path d="M80.5848 15.8438C80.7838 15.3894 81.3263 15.1493 81.7965 15.3074L95.331 19.858C95.8012 20.0161 96.0209 20.5126 95.8219 20.9669C95.6229 21.4212 95.0804 21.6614 94.6102 21.5033L81.0757 16.9526C80.6055 16.7946 80.3857 16.2981 80.5848 15.8438Z" fill="#165954" stroke="#FAC08A"/>
<path d="M52.4723 23.5494C52.2142 22.4821 52.8795 21.4512 53.9583 21.2467L56.3654 20.7904C57.4442 20.586 58.5281 21.2854 58.7863 22.3527C59.0444 23.42 58.3791 24.4509 57.3003 24.6554L54.8932 25.1117C53.8144 25.3162 52.7305 24.6167 52.4723 23.5494Z" fill="#165954"/>
<path d="M65.1402 67.4863C73.4289 67.4863 80.469 61.5008 80.469 53.7449C80.469 45.9891 73.4289 40.0035 65.1402 40.0035C56.8515 40.0035 49.8115 45.9891 49.8115 53.7449C49.8115 61.5008 56.8515 67.4863 65.1402 67.4863Z" fill="#165954" stroke="#FAC08A" stroke-width="3"/>
<ellipse cx="65.1404" cy="53.8429" rx="11.1736" ry="9.98897" fill="#FAC08A"/>
<ellipse cx="14.4405" cy="54.2049" rx="13.8287" ry="12.7014" fill="#165954"/>
<ellipse cx="14.4402" cy="54.3067" rx="11.1736" ry="10.3644" fill="#FAC08A"/>
<path d="M14.9646 54.6115C14.6139 54.3948 14.5365 53.9567 14.7918 53.633L26.1038 39.2884C26.3591 38.9647 26.8503 38.878 27.201 39.0947C27.5517 39.3114 27.6291 39.7495 27.3738 40.0732L16.0618 54.4178C15.8065 54.7415 15.3153 54.8282 14.9646 54.6115Z" fill="#165954"/>
<path d="M26.2758 39.7051C26.1548 39.342 26.3569 38.9692 26.7272 38.8724L55.1962 31.4348C55.5665 31.3381 55.9649 31.554 56.0859 31.9171C56.207 32.2802 56.0049 32.653 55.6346 32.7498L27.1656 40.1874C26.7953 40.2841 26.3969 40.0682 26.2758 39.7051Z" fill="#165954"/>
<path d="M35.913 53.9418C35.6288 53.6588 35.6539 53.2284 35.969 52.9804L57.4292 36.0929C57.7444 35.8449 58.2302 35.8732 58.5143 36.1562C58.7985 36.4392 58.7734 36.8696 58.4582 37.1176L36.9981 54.0051C36.6829 54.2531 36.1971 54.2247 35.913 53.9418Z" fill="#165954"/>
<mask id="path-27-outside-1_373_40" maskUnits="userSpaceOnUse" x="51.9372" y="23.683" width="15.4088" height="29.4803" fill="black">
<rect fill="white" x="51.9372" y="23.683" width="15.4088" height="29.4803"/>
<path d="M53.8213 24.5456C54.3693 24.3832 54.9774 24.6848 55.1796 25.2194L64.9116 50.9443C65.1138 51.4789 64.8335 52.0439 64.2855 52.2064C63.7376 52.3688 63.1294 52.0672 62.9272 51.5326L53.1953 25.8076C52.993 25.2731 53.2733 24.708 53.8213 24.5456Z"/>
</mask>
<path d="M53.8213 24.5456C54.3693 24.3832 54.9774 24.6848 55.1796 25.2194L64.9116 50.9443C65.1138 51.4789 64.8335 52.0439 64.2855 52.2064C63.7376 52.3688 63.1294 52.0672 62.9272 51.5326L53.1953 25.8076C52.993 25.2731 53.2733 24.708 53.8213 24.5456Z" fill="#165954"/>
<path d="M53.8213 24.5456C55.4283 24.0692 57.2118 24.9539 57.8048 26.5216L66.1214 48.5053C66.7145 50.073 65.8925 51.73 64.2855 52.2064C64.0854 52.2657 63.8677 52.2646 63.6609 52.2033C63.4541 52.1419 63.2679 52.0232 63.1267 51.8626L53.2621 25.7878L53.1297 25.4378C53.1335 25.2344 53.2014 25.0403 53.3247 24.8811C53.4481 24.7219 53.6212 24.6049 53.8213 24.5456V24.5456ZM63.2933 52.5005L52.8291 24.8397L63.2933 52.5005ZM52.8291 24.8397L54.8135 24.2515L52.8291 24.8397ZM65.2777 51.9122L63.2933 52.5005L65.2777 51.9122Z" fill="#FAC08A" mask="url(#path-27-outside-1_373_40)"/>
<path d="M35.7083 51.2032C35.316 51.3541 34.8479 51.1706 34.6627 50.7934L26.0958 33.345C25.9106 32.9677 26.0784 32.5395 26.4706 32.3886C26.8629 32.2377 27.331 32.4212 27.5162 32.7985L36.0831 50.2469C36.2683 50.6241 36.1005 51.0523 35.7083 51.2032Z" fill="#165954"/>
<path d="M14.5513 54.0775C14.5513 53.6989 14.8582 53.392 15.2368 53.392H35.2431C35.6217 53.392 35.9286 53.6989 35.9286 54.0775C35.9286 54.4561 35.6217 54.763 35.2431 54.763H15.2368C14.8582 54.763 14.5513 54.4561 14.5513 54.0775Z" fill="#165954"/>
<path d="M42.1112 34.0152C44.8324 35.3422 46.0977 38.4576 44.9547 41.404L40.5955 52.6406C40.0623 54.015 38.4867 54.7815 37.0763 54.3528C35.6659 53.924 34.9547 52.4623 35.4879 51.0879L42.1112 34.0152Z" fill="#165954" stroke="#FAC08A" stroke-width="2"/>
<path d="M43.2357 33.0631C45.9918 34.2265 47.0759 37.3047 45.6572 39.9384C45.6022 40.0405 45.471 40.0867 45.3641 40.0416L26.4699 32.0662C25.0385 31.4619 24.4754 29.8631 25.2123 28.4952C25.9491 27.1273 27.7069 26.5082 29.1384 27.1124L43.2357 33.0631Z" fill="#165954" stroke="#FAC08A"/>
<path d="M23.459 32.043C23.459 31.562 23.849 31.172 24.33 31.172H29.318V32.9141H24.33C23.849 32.9141 23.459 32.5241 23.459 32.043Z" fill="#165954" stroke="#165954"/>
<path d="M36.047 25.4496C33.4681 30.5904 32.3224 34.6248 28.4135 33.0882C23.7671 33.0882 23.3895 30.6015 26.4022 20.9593C30.6062 12.2434 34.1328 11.1837 38.2261 12.8485C42.3194 15.003 38.626 20.3087 36.047 25.4496Z" fill="#165954"/>
<path d="M40.6531 36.4873L45.9342 37.6547L45.5501 39.5792L44.0139 42.2734L40.218 40.3705L40.9412 37.6547L40.6531 36.4873Z" fill="#165954"/>
<ellipse cx="42.8612" cy="6.47846" rx="6.1454" ry="5.77338" fill="#165954"/>
<path d="M33.59 16.5709C33.9578 15.7227 34.9657 15.2761 35.8411 15.5735L56.6729 22.6509C57.5484 22.9484 57.9599 23.8771 57.5921 24.7254C57.2243 25.5737 56.2165 26.0203 55.3411 25.7229L34.5092 18.6454C33.6338 18.348 33.2223 17.4192 33.59 16.5709Z" fill="#165954" stroke="#FAC08A"/>
</svg>
