<svg width="134" height="87" viewBox="0 0 134 87" fill="none" xmlns="http://www.w3.org/2000/svg">
<path d="M113.085 25.4135C112.88 24.5234 113.439 23.6577 114.335 23.4799L116.122 23.1255C117.018 22.9477 117.911 23.5252 118.117 24.4154V24.4154C118.323 25.3055 117.763 26.1712 116.867 26.349L115.081 26.7033C114.184 26.8811 113.291 26.3036 113.085 25.4135V25.4135Z" fill="#165954"/>
<ellipse cx="82.7768" cy="51.3645" rx="11.0204" ry="10.2095" fill="#165954"/>
<ellipse cx="82.7768" cy="51.4461" rx="8.90451" ry="8.33096" fill="white"/>
<ellipse cx="122.979" cy="49.5677" rx="11.0204" ry="10.2095" fill="#165954"/>
<ellipse cx="122.979" cy="49.6493" rx="8.90451" ry="8.33096" fill="white"/>
<path d="M83.1948 51.3198C82.9153 51.1391 82.8511 50.7771 83.0514 50.5113L92.0775 38.5326C92.2778 38.2668 92.6668 38.1978 92.9463 38.3786V38.3786C93.2257 38.5593 93.2899 38.9213 93.0896 39.1871L84.0635 51.1658C83.8632 51.4316 83.4742 51.5006 83.1948 51.3198V51.3198Z" fill="#165954"/>
<path d="M92.2086 38.8876C92.1121 38.5847 92.2825 38.2713 92.5891 38.1875L115.235 31.9957C115.542 31.9119 115.869 32.0895 115.965 32.3923V32.3923C116.061 32.6951 115.891 33.0086 115.585 33.0924L92.9384 39.2842C92.6319 39.368 92.3051 39.1904 92.2086 38.8876V38.8876Z" fill="#165954"/>
<path d="M99.8888 50.7612C99.6623 50.5252 99.6834 50.1653 99.9359 49.9574L117.033 35.8769C117.286 35.669 117.674 35.6917 117.9 35.9277V35.9277C118.127 36.1637 118.106 36.5236 117.853 36.7315L100.756 50.812C100.503 51.0199 100.115 50.9972 99.8888 50.7612V50.7612Z" fill="#165954"/>
<path d="M114.16 26.2443C114.597 26.1089 115.077 26.3476 115.233 26.7776L123.009 48.29C123.164 48.72 122.936 49.1784 122.5 49.3139V49.3139C122.063 49.4493 121.583 49.2106 121.428 48.7806L113.651 27.2682C113.496 26.8382 113.724 26.3798 114.16 26.2443V26.2443Z" fill="#165954"/>
<path d="M99.7254 48.4772C99.4128 48.603 99.0434 48.4578 98.9003 48.1527L92.0569 33.5658C91.9137 33.2607 92.0511 32.9114 92.3637 32.7855V32.7855C92.6763 32.6597 93.0457 32.805 93.1889 33.11L100.032 47.6969C100.175 48.002 100.038 48.3513 99.7254 48.4772V48.4772Z" fill="#165954"/>
<path d="M82.8652 50.8745C82.8652 50.5587 83.1212 50.3027 83.437 50.3027H99.3296C99.6454 50.3027 99.9013 50.5587 99.9013 50.8745V50.8745C99.9013 51.1902 99.6454 51.4462 99.3296 51.4462H83.437C83.1212 51.4462 82.8652 51.1902 82.8652 50.8745V50.8745Z" fill="#165954"/>
<path d="M106.978 40.0434L103.393 49.7156C103.022 50.718 101.894 51.2679 100.876 50.9438C99.8567 50.6197 99.332 49.5443 99.7037 48.5418L104.947 34.3981C106.893 35.5008 107.795 37.842 106.978 40.0434Z" fill="#165954" stroke="white" stroke-width="2"/>
<path d="M107.445 39.084L92.4734 32.47C91.3437 31.971 90.886 30.6762 91.4513 29.5781C92.0165 28.48 93.3905 27.9944 94.5202 28.4934L105.559 33.3699C107.775 34.3488 108.672 36.8883 107.564 39.0421C107.542 39.0845 107.489 39.1033 107.445 39.084Z" fill="#165954" stroke="#F5ECEC"/>
<path d="M90.7091 31.8539H94.5318V33.1408H90.7091C90.3538 33.1408 90.0657 32.8527 90.0657 32.4973C90.0657 32.142 90.3538 31.8539 90.7091 31.8539Z" fill="#165954" stroke="#165954"/>
<path d="M99.9955 26.9982C97.9403 31.2857 97.0273 34.6504 93.9122 33.3689C90.2094 33.3689 89.9084 31.295 92.3094 23.2532C95.6596 15.984 98.47 15.1002 101.732 16.4887C104.994 18.2856 102.051 22.7106 99.9955 26.9982Z" fill="#165954"/>
<path d="M104.804 36.592L107.163 36.4613L107.606 38.009L107.2 39.1608L106.543 39.9131L105.939 40.6826L103.632 39.7151L104.804 36.592Z" fill="#165954"/>
<ellipse cx="105.435" cy="11.0981" rx="5.11348" ry="4.73721" fill="#165954"/>
<path d="M99.8549 18.8608L116.344 24.7236C117.021 24.9642 117.347 25.6973 117.072 26.361C116.797 27.0247 116.025 27.3676 115.348 27.1269L98.8592 21.2642C98.1824 21.0235 97.8566 20.2904 98.1315 19.6268C98.4065 18.9631 99.178 18.6202 99.8549 18.8608Z" fill="#165954" stroke="white"/>
<path d="M63.708 29.6763C63.3909 28.2899 64.2643 26.9393 65.6588 26.6598L68.3651 26.1173C69.7596 25.8378 71.1472 26.7352 71.4644 28.1217V28.1217C71.7815 29.5081 70.9081 30.8587 69.5135 31.1382L66.8073 31.6806C65.4127 31.9602 64.0252 31.0628 63.708 29.6763V29.6763Z" fill="#165954"/>
<path d="M78.9595 84.7012C89.0752 84.7012 97.4473 77.0017 97.4473 67.2989C97.4473 57.596 89.0752 49.8965 78.9595 49.8965C68.8438 49.8965 60.4717 57.596 60.4717 67.2989C60.4717 77.0017 68.8438 84.7012 78.9595 84.7012Z" fill="#165954" stroke="white" stroke-width="3"/>
<ellipse cx="78.9596" cy="67.426" rx="13.7262" ry="12.9763" fill="white"/>
<ellipse cx="16.9878" cy="70.0976" rx="16.9878" ry="15.9024" fill="#165954"/>
<ellipse cx="16.9876" cy="70.2249" rx="13.7262" ry="12.9763" fill="white"/>
<path d="M17.6319 70.0281C17.201 69.7465 17.1012 69.1839 17.4089 68.7713L31.3265 50.108C31.6342 49.6954 32.2328 49.5892 32.6636 49.8707V49.8707C33.0945 50.1522 33.1943 50.7149 32.8866 51.1275L18.969 69.7908C18.6613 70.2034 18.0627 70.3096 17.6319 70.0281V70.0281Z" fill="#165954"/>
<path d="M31.5268 50.6636C31.3781 50.1918 31.644 49.7027 32.1208 49.571L67.0144 39.9309C67.4912 39.7991 67.9982 40.0748 68.1469 40.5465V40.5465C68.2957 41.0182 68.0297 41.5074 67.553 41.6391L32.6593 51.2792C32.1826 51.4109 31.6756 51.1353 31.5268 50.6636V50.6636Z" fill="#165954"/>
<path d="M43.3654 69.158C43.0164 68.7904 43.0493 68.2296 43.4389 67.9053L69.7925 45.9749C70.1821 45.6507 70.781 45.6858 71.13 46.0534V46.0534C71.4791 46.4209 71.4462 46.9818 71.0566 47.306L44.703 69.2365C44.3134 69.5607 43.7145 69.5256 43.3654 69.158V69.158Z" fill="#165954"/>
<mask id="path-27-outside-1_313_60" maskUnits="userSpaceOnUse" x="63.7213" y="29.9901" width="17.9077" height="38.2166" fill="black">
<rect fill="white" x="63.7213" y="29.9901" width="17.9077" height="38.2166"/>
<path d="M65.3651 30.9705C66.0383 30.7594 66.7766 31.1268 67.0142 31.7911L79.0085 65.3188C79.2461 65.9831 78.893 66.6926 78.2199 66.9036V66.9036C77.5467 67.1147 76.8084 66.7473 76.5708 66.083L64.5765 32.5553C64.3389 31.891 64.692 31.1815 65.3651 30.9705V30.9705Z"/>
</mask>
<path d="M65.3651 30.9705C66.0383 30.7594 66.7766 31.1268 67.0142 31.7911L79.0085 65.3188C79.2461 65.9831 78.893 66.6926 78.2199 66.9036V66.9036C77.5467 67.1147 76.8084 66.7473 76.5708 66.083L64.5765 32.5553C64.3389 31.891 64.692 31.1815 65.3651 30.9705V30.9705Z" fill="#165954"/>
<path d="M65.3651 30.9705C67.0923 30.429 68.9867 31.3717 69.5963 33.0759L80.2432 62.8375C80.8529 64.5417 79.947 66.3622 78.2199 66.9036L78.2199 66.9036C77.9737 66.9808 77.7071 66.9826 77.4549 66.9088L65.1058 32.3893L64.751 31.3975C64.9049 31.1965 65.119 31.0476 65.3651 30.9705L65.3651 30.9705ZM77.001 67.2857L64.1463 31.3526L77.001 67.2857ZM64.1463 31.3526L66.584 30.5884L64.1463 31.3526ZM79.4387 66.5215L77.001 67.2857L79.4387 66.5215Z" fill="white" mask="url(#path-27-outside-1_313_60)"/>
<path d="M43.1142 65.6004C42.6323 65.7964 42.0641 65.5728 41.845 65.101L31.2904 42.3683C31.0713 41.8965 31.2844 41.355 31.7662 41.159V41.159C32.2481 40.9629 32.8163 41.1865 33.0354 41.6583L43.59 64.391C43.8091 64.8629 43.596 65.4043 43.1142 65.6004V65.6004Z" fill="#165954"/>
<path d="M17.1238 69.3343C17.1238 68.8424 17.5225 68.4437 18.0143 68.4437H42.4941C42.986 68.4437 43.3847 68.8424 43.3847 69.3343V69.3343C43.3847 69.8261 42.986 70.2248 42.4941 70.2248H18.0143C17.5225 70.2248 17.1238 69.8261 17.1238 69.3343V69.3343Z" fill="#165954"/>
<path d="M54.8365 52.5602L49.2712 67.7305C48.5998 69.5608 46.5509 70.5608 44.6949 69.9642C42.8389 69.3675 41.8787 67.4001 42.5501 65.5699L50.8701 42.8905C54.489 44.5708 56.2529 48.6991 54.8365 52.5602Z" fill="#165954" stroke="white" stroke-width="2"/>
<path d="M54.8828 51.2143L31.8344 40.926C29.9418 40.0812 29.1702 37.8992 30.111 36.0524C31.0517 34.2056 33.3486 33.3934 35.2412 34.2382L52.187 41.8024C55.7647 43.3995 57.2234 47.5243 55.445 51.0155C55.3419 51.2179 55.0902 51.3069 54.8828 51.2143Z" fill="#165954" stroke="#F5ECEC"/>
<path d="M29.2335 39.4291H35.3784V41.9912H29.2335C28.5259 41.9912 27.9524 41.4177 27.9524 40.7101C27.9524 40.0026 28.5259 39.4291 29.2335 39.4291Z" fill="#165954" stroke="#165954"/>
<path d="M43.5302 32.1447C40.3622 38.823 38.9547 44.0639 34.1529 42.0678C28.445 42.0678 27.9811 38.8374 31.6821 26.3115C36.8464 14.989 41.1787 13.6124 46.207 15.7751C51.2354 18.574 46.6983 25.4664 43.5302 32.1447Z" fill="#165954"/>
<path d="M49.1333 46.4554L55.7989 48.6246L55.2242 50.6787L53.6071 54.0273L48.3283 51.7238L49.1404 49.0363L49.1333 46.4554Z" fill="#165954"/>
<ellipse cx="51.9148" cy="7.3787" rx="7.88235" ry="7.3787" fill="#165954"/>
<path d="M43.4389 19.2202L68.816 28.3375C70.0117 28.7671 70.5903 30.0684 70.1084 31.244C69.6264 32.4196 68.2663 33.0243 67.0706 32.5947L41.6934 23.4774C40.4977 23.0478 39.9191 21.7466 40.4011 20.571C40.8831 19.3954 42.2431 18.7906 43.4389 19.2202Z" fill="#165954" stroke="white"/>
</svg>
