<svg width="56" height="40" viewBox="0 0 56 40" fill="none" xmlns="http://www.w3.org/2000/svg">
<g filter="url(#filter0_d_374_189)">
<path d="M7.14844 9C7.14844 4.02944 11.1779 0 16.1484 0H42.4561C47.4267 0 51.4561 4.02944 51.4561 9V22.5972C51.4561 27.5678 47.4267 31.5972 42.4561 31.5972H8.14844C7.59615 31.5972 7.14844 31.1495 7.14844 30.5972V9Z" fill="white"/>
<rect x="16.3789" y="6.31946" width="27.6923" height="1.94444" rx="0.972222" fill="#165954"/>
<rect x="16.3789" y="21.875" width="25.4769" height="1.94444" rx="0.972222" fill="#165954"/>
<rect x="16.3789" y="14.0972" width="20.3077" height="1.94444" rx="0.972222" fill="#165954"/>
<path d="M7.28791 24.1466C7.67139 23.2776 8.93663 23.3825 9.17169 24.3028L10.7162 30.3498C10.8777 30.9821 10.3999 31.5972 9.74727 31.5972H5.53433C4.81181 31.5972 4.32775 30.8545 4.61945 30.1935L7.28791 24.1466Z" fill="white"/>
</g>
<defs>
<filter id="filter0_d_374_189" x="0.533203" y="0" width="54.9229" height="39.5973" filterUnits="userSpaceOnUse" color-interpolation-filters="sRGB">
<feFlood flood-opacity="0" result="BackgroundImageFix"/>
<feColorMatrix in="SourceAlpha" type="matrix" values="0 0 0 0 0 0 0 0 0 0 0 0 0 0 0 0 0 0 127 0" result="hardAlpha"/>
<feOffset dy="4"/>
<feGaussianBlur stdDeviation="2"/>
<feComposite in2="hardAlpha" operator="out"/>
<feColorMatrix type="matrix" values="0 0 0 0 0 0 0 0 0 0 0 0 0 0 0 0 0 0 0.25 0"/>
<feBlend mode="normal" in2="BackgroundImageFix" result="effect1_dropShadow_374_189"/>
<feBlend mode="normal" in="SourceGraphic" in2="effect1_dropShadow_374_189" result="shape"/>
</filter>
</defs>
</svg>
