<svg width="152" height="146" viewBox="0 0 152 146" fill="none" xmlns="http://www.w3.org/2000/svg">
<g clip-path="url(#clip0_502_186)">
<path d="M76 146C117.974 146 152 113.317 152 73C152 32.6832 117.974 0 76 0C34.0264 0 0 32.6832 0 73C0 113.317 34.0264 146 76 146Z" fill="#FEF7F1"/>
<path d="M42.2222 93.2777L94.7723 143.754C121.765 137.166 142.988 116.704 149.736 90.735L112.081 54.5658L115.379 61.7891L86.7475 34.288L42.2222 93.2777Z" fill="#CBB29C"/>
<path d="M105.939 48.6667H67.5557V113.555H118.222V60.4645L105.939 48.6667Z" fill="#D6D6D6"/>
<path d="M118.222 60.4645L105.939 48.6667H93.0601V113.555H118.222V60.4645Z" fill="#AFAFAF"/>
<path d="M105.939 60.4645H118.222L105.939 48.6667V60.4645Z" fill="#E2E2E2"/>
<path d="M80.606 28.389H42.2222V93.2778H92.8889V40.1868L80.606 28.389Z" fill="white"/>
<path d="M92.8888 40.1868L80.6059 28.389H65.2524V93.2778H92.8888V40.1868Z" fill="#E2E2E2"/>
<path d="M80.606 40.1868H92.8889L80.606 28.389V40.1868Z" fill="#AFAFAF"/>
<path d="M84.4448 48.1752H50.667V49.1584H84.4448V48.1752Z" fill="#121149"/>
<path d="M84.4448 56.2861H50.667V57.2694H84.4448V56.2861Z" fill="#121149"/>
<path d="M84.4448 64.3974H50.667V65.3806H84.4448V64.3974Z" fill="#121149"/>
<path d="M84.4448 72.5084H50.667V73.4916H84.4448V72.5084Z" fill="#121149"/>
<path d="M49.3081 116.394C49.3081 115.429 49.7086 114.464 50.5095 113.728L69.8428 95.9497C71.4443 94.4769 74.0411 94.4769 75.6426 95.9497C77.2441 97.4224 77.2441 99.8102 75.6426 101.283L56.3091 119.061C54.7075 120.533 52.1108 120.533 50.5093 119.061C49.7086 118.324 49.3081 117.359 49.3081 116.394Z" fill="#67A39D"/>
<path d="M75.589 95.8751L50.4648 118.978C50.4927 119.005 50.517 119.034 50.5461 119.061C52.1476 120.533 54.7443 120.533 56.3458 119.061L75.679 101.283C77.2806 99.8101 77.2806 97.4223 75.679 95.9497C75.65 95.9231 75.6187 95.9004 75.589 95.8751Z" fill="#457873"/>
<path d="M82.4091 103.061C90.4172 103.061 96.9091 97.0911 96.9091 89.7273C96.9091 82.3636 90.4172 76.394 82.4091 76.394C74.401 76.394 67.9092 82.3636 67.9092 89.7273C67.9092 97.0911 74.401 103.061 82.4091 103.061Z" fill="white"/>
<path d="M92.5744 80.2227L72.0723 99.0752C74.7028 101.534 78.3612 103.061 82.4086 103.061C90.4167 103.061 96.9086 97.0914 96.9086 89.7277C96.9089 86.0055 95.2488 82.6413 92.5744 80.2227Z" fill="#E5E4E3"/>
<path d="M65.1265 89.7273C65.1265 80.9645 72.8797 73.8351 82.4092 73.8351C91.9388 73.8351 99.692 80.9645 99.692 89.7273C99.692 98.4901 91.9388 105.62 82.4092 105.62C72.8797 105.62 65.1265 98.4901 65.1265 89.7273ZM94.1265 89.7273C94.1265 83.7864 88.8702 78.953 82.4094 78.953C75.9486 78.953 70.6923 83.7864 70.6923 89.7273C70.6923 95.6683 75.9486 100.502 82.4094 100.502C88.8702 100.502 94.1265 95.6683 94.1265 89.7273Z" fill="#67A39D"/>
<path d="M94.5366 78.4185L90.6029 82.0356C92.775 83.9925 94.1262 86.717 94.1262 89.7272C94.1262 95.6681 88.8699 100.502 82.4091 100.502C79.1354 100.502 76.1726 99.2591 74.0445 97.2617L70.1108 100.879C73.2469 103.803 77.601 105.619 82.4091 105.619C91.9387 105.619 99.6919 98.49 99.6919 89.7272C99.6919 85.306 97.7163 81.3022 94.5366 78.4185Z" fill="#457873"/>
<path d="M86.5 85.5L77.5 94.5" stroke="#B01A1A" stroke-width="2" stroke-linecap="round" stroke-linejoin="round"/>
<path d="M77.5 85.5L86.5 94.5" stroke="#B01A1A" stroke-width="2" stroke-linecap="round" stroke-linejoin="round"/>
</g>
<defs>
<clipPath id="clip0_502_186">
<rect width="152" height="146" fill="white"/>
</clipPath>
</defs>
</svg>
