<svg width="29" height="30" viewBox="0 0 29 30" fill="none" xmlns="http://www.w3.org/2000/svg">
<g clip-path="url(#clip0_65_15)">
<path d="M26.6699 16.6396C25.3856 16.6396 24.3444 17.7167 24.3444 19.0453V25.1885H4.65536V19.0453C4.65536 17.7167 3.61416 16.6396 2.32988 16.6396C1.04559 16.6396 0.00439453 17.7167 0.00439453 19.0453V27.5942C0.00439453 28.9228 1.04559 29.9999 2.32988 29.9999H26.6699C27.9542 29.9999 28.9954 28.9228 28.9954 27.5942V19.0453C28.9954 17.7167 27.9542 16.6396 26.6699 16.6396Z" fill="white"/>
<path d="M9.57872 10.8989L12.1746 8.2135V17.1766C12.1746 18.5052 13.2158 19.5823 14.5001 19.5823C15.7843 19.5823 16.8255 18.5052 16.8255 17.1766V8.21342L19.4214 10.8988C19.8754 11.3685 20.4706 11.6034 21.0657 11.6034C21.6609 11.6034 22.256 11.3685 22.7101 10.8988C23.6183 9.9593 23.6183 8.43619 22.7101 7.49669L16.1444 0.704681C15.2363 -0.234894 13.7638 -0.234894 12.8557 0.704681L6.29002 7.49677C5.38184 8.43627 5.38184 9.95938 6.29002 10.8989C7.19812 11.8384 8.67062 11.8384 9.57872 10.8989Z" fill="white"/>
</g>
<defs>
<clipPath id="clip0_65_15">
<rect width="29" height="30" fill="white"/>
</clipPath>
</defs>
</svg>
