<svg width="65" height="69" viewBox="0 0 65 69" fill="none" xmlns="http://www.w3.org/2000/svg">
<path d="M60.1244 64.0982C58.1822 50.229 53.1164 36.5616 41.1649 32.1789C45.8097 29.108 48.8926 23.644 48.8926 17.4014C48.8926 7.79962 41.5587 0 32.5 0C23.4413 0 16.1074 7.78521 16.1074 17.4014C16.1074 23.6295 19.204 29.108 23.8352 32.1789C11.8837 36.5616 6.80425 50.229 4.87571 64.0982C4.50902 66.6789 6.42398 69 8.88219 69H56.0907C58.5761 69 60.491 66.6789 60.1244 64.0982ZM22.2869 17.4014C22.2869 11.4183 26.8774 6.54534 32.5136 6.54534C33.8582 6.54534 34.9582 7.71312 34.9582 9.14041C34.9582 10.5677 33.8582 11.7355 32.5136 11.7355C29.5665 11.7355 27.1762 14.2729 27.1762 17.4014C27.1762 18.8287 26.0761 19.9964 24.7315 19.9964C23.3734 19.9964 22.2869 18.8431 22.2869 17.4014Z" fill="#F9AC66"/>
</svg>
