<svg width="125" height="130" viewBox="0 0 125 130" fill="none" xmlns="http://www.w3.org/2000/svg">
<g clip-path="url(#clip0_64_88)">
<path d="M62.735 128.263C29.1096 128.263 1.75635 99.8448 1.75635 64.9107C1.75635 29.9766 29.1096 1.55872 62.735 1.55872C96.3604 1.55872 123.714 29.9766 123.714 64.9107C123.714 99.8448 96.3604 128.263 62.735 128.263Z" fill="white"/>
<path d="M62.7351 2.56427C95.8262 2.56427 122.746 30.5316 122.746 64.9106C122.746 99.2896 95.8262 127.257 62.7351 127.257C29.6441 127.257 2.7244 99.2896 2.7244 64.9106C2.7244 30.5316 29.6441 2.56427 62.7351 2.56427ZM62.7351 0.553101C28.5213 0.553101 0.788574 29.3652 0.788574 64.9106C0.788574 100.456 28.5213 129.268 62.7351 129.268C96.949 129.268 124.682 100.456 124.682 64.9106C124.682 29.3652 96.949 0.553101 62.7351 0.553101Z" fill="#D6D6D6"/>
<path d="M61.8353 64.1464C70.0826 64.1464 76.7683 57.3391 76.7683 48.9419C76.7683 40.5447 70.0826 33.7374 61.8353 33.7374C53.5881 33.7374 46.9023 40.5447 46.9023 48.9419C46.9023 57.3391 53.5881 64.1464 61.8353 64.1464Z" fill="#0BA4E0"/>
<path d="M87.6285 95.4443C87.6285 80.9397 76.0793 69.1824 61.8355 69.1824C47.5916 69.1824 36.0425 80.9397 36.0425 95.4443H87.6285Z" fill="#0BA4E0"/>
<path d="M85.4472 40.5756C79.5546 34.1748 71.2279 30.1848 61.9999 30.1848C52.7681 30.1848 44.4414 34.1788 38.5449 40.5796C41.2255 29.783 50.7076 21.803 61.9999 21.803C73.2845 21.803 82.7705 29.783 85.4472 40.5756Z" fill="#F4C8C1"/>
<path d="M86.206 46.8051C86.206 60.6171 75.3681 78.3912 61.9999 78.3912C48.6279 78.3912 37.79 60.6171 37.79 46.8051C37.79 44.657 38.0519 42.5685 38.5449 40.5794C44.4414 34.1787 52.7681 30.1847 61.9999 30.1847C71.2279 30.1847 79.5546 34.1747 85.4472 40.5755C85.9441 42.5685 86.206 44.653 86.206 46.8051Z" fill="#FFDED7"/>
<path d="M101.747 113.176V113.18C91.059 122.628 77.1747 128.336 62.0002 128.336C54.5824 128.336 47.4689 126.972 40.8907 124.469C34.0083 121.86 27.7112 118.005 22.2461 113.172C22.2769 112.826 22.3116 112.483 22.3501 112.137C22.3847 111.835 22.4194 111.533 22.4618 111.234C22.4733 111.151 22.4849 111.071 22.4964 110.988C22.5349 110.689 22.5812 110.391 22.6312 110.097C22.6543 109.945 22.6813 109.79 22.7083 109.635C22.7314 109.484 22.7622 109.333 22.7891 109.178C22.82 109.015 22.8508 108.847 22.8854 108.68C22.9162 108.513 22.9509 108.35 22.9856 108.187C23.0202 108.024 23.0549 107.861 23.0934 107.698C23.1088 107.626 23.1242 107.555 23.1396 107.487C23.155 107.415 23.1704 107.344 23.1897 107.272C23.2398 107.053 23.2898 106.835 23.3476 106.616C23.3476 106.6 23.3514 106.584 23.3591 106.572C29.4251 111.688 36.4578 115.622 44.1297 118.037C49.7797 119.819 55.7841 120.778 62.0002 120.778C76.6548 120.778 90.1077 115.455 100.637 106.576C100.649 106.624 100.661 106.671 100.672 106.723C100.676 106.739 100.68 106.751 100.684 106.767C100.734 106.966 100.78 107.161 100.826 107.36V107.364C100.83 107.38 100.834 107.399 100.838 107.419C100.845 107.447 100.853 107.479 100.857 107.507C100.911 107.734 100.961 107.964 101.007 108.191C101.05 108.394 101.092 108.597 101.13 108.804C101.165 108.967 101.196 109.126 101.223 109.289C101.273 109.548 101.315 109.806 101.358 110.069C101.362 110.097 101.369 110.128 101.369 110.16C101.412 110.411 101.45 110.662 101.485 110.916C101.504 111.035 101.519 111.155 101.535 111.278C101.577 111.565 101.612 111.851 101.643 112.141C101.681 112.483 101.716 112.83 101.747 113.176Z" fill="#999999"/>
<path d="M100.637 106.576C90.1074 115.455 76.6545 120.778 62 120.778C47.3415 120.778 33.8925 115.455 23.3589 106.572C25.4502 98.2379 30.0064 90.9262 36.1725 85.516C40.4706 81.7447 46.6175 81.4305 51.4394 84.4498C54.6977 86.4906 58.2641 87.688 62 87.688C65.7358 87.688 69.2983 86.4906 72.5566 84.4498C77.367 81.4424 83.5023 81.7328 87.7928 85.4881C93.9742 90.9023 98.542 98.222 100.637 106.576Z" fill="#CCCCCC"/>
<path d="M96.9014 13.2898C87.0033 6.17301 74.9754 2 62.0001 2C52.1444 2 42.8317 4.40674 34.5897 8.68319C14.5778 19.066 0.84375 40.4601 0.84375 65.168C0.84375 68.2988 1.06328 71.3778 1.49078 74.3853C3.67838 89.8401 11.281 103.477 22.246 113.172C22.2768 112.826 22.3114 112.483 22.3499 112.137C22.3846 111.835 22.4193 111.533 22.4616 111.234C22.4732 111.151 22.4848 111.071 22.4963 110.988C22.5348 110.689 22.581 110.391 22.6311 110.097C22.6542 109.945 22.6812 109.79 22.7081 109.635C22.7312 109.484 22.7621 109.333 22.789 109.178C22.8198 109.015 22.8506 108.847 22.8853 108.68C22.9161 108.513 22.9508 108.35 22.9854 108.187C23.0201 108.024 23.0548 107.861 23.0933 107.698C23.1087 107.626 23.1241 107.555 23.1395 107.487C23.1549 107.415 23.1703 107.344 23.1896 107.272C23.2396 107.053 23.2897 106.835 23.3475 106.616C23.3475 106.6 23.3513 106.584 23.359 106.572C23.359 106.56 23.3629 106.548 23.3667 106.54C23.4245 106.301 23.4861 106.063 23.5516 105.828C23.6941 105.299 23.8481 104.778 24.0099 104.257C24.0561 104.114 24.0985 103.97 24.1486 103.827C24.214 103.624 24.2795 103.425 24.3488 103.226C24.4374 102.96 24.5298 102.697 24.6261 102.439C24.888 101.715 25.173 100.999 25.4773 100.295C25.5659 100.076 25.6622 99.857 25.7623 99.6422C25.7661 99.6302 25.77 99.6223 25.7777 99.6103C25.8393 99.4671 25.9048 99.3239 25.9703 99.1847C25.9895 99.1489 26.0049 99.1091 26.0242 99.0733C26.1282 98.8386 26.2399 98.6039 26.3554 98.3731C26.5865 97.9037 26.8214 97.4383 27.0718 96.9808C27.1912 96.7501 27.3183 96.5194 27.4492 96.2926C27.5724 96.0659 27.7034 95.8391 27.8382 95.6163C27.9653 95.3936 28.1001 95.1708 28.2387 94.948C28.5083 94.5025 28.7856 94.0649 29.0783 93.6352C29.1708 93.4881 29.2671 93.3448 29.371 93.2016C29.371 93.2016 29.371 93.1977 29.3749 93.1977C29.502 93.0027 29.6368 92.8158 29.7754 92.6208C29.8756 92.4736 29.9834 92.3225 30.0951 92.1793C30.1144 92.1554 30.1298 92.1275 30.149 92.1037C30.2376 91.9764 30.3262 91.857 30.4225 91.7337C30.7306 91.32 31.0464 90.9142 31.3738 90.5124C31.524 90.3215 31.6819 90.1305 31.8436 89.9436C31.8552 89.9277 31.8668 89.9118 31.8822 89.8958C32.0093 89.7447 32.1363 89.5935 32.2673 89.4463C32.533 89.136 32.8026 88.8337 33.0799 88.5393C33.1839 88.42 33.2956 88.3046 33.4035 88.1892C33.6692 87.9068 33.935 87.6323 34.2084 87.3618C34.22 87.3459 34.2277 87.3379 34.2392 87.33C34.4664 87.0992 34.6975 86.8725 34.9325 86.6537C34.9748 86.6099 35.021 86.5662 35.0634 86.5264C35.2367 86.3633 35.4139 86.2002 35.5911 86.0371C35.7836 85.8621 35.9762 85.687 36.1726 85.516C40.4708 81.7447 46.6176 81.4305 51.4396 84.4498C51.6899 84.609 51.9441 84.7601 52.2021 84.9073C52.3446 84.9909 52.4871 85.0704 52.6296 85.146C53.034 85.3728 53.4461 85.5836 53.8621 85.7785C53.9468 85.8223 54.0354 85.8621 54.124 85.9018C54.2742 85.9734 54.4282 86.0411 54.5784 86.1047C54.7672 86.1843 54.9559 86.2638 55.1446 86.3394C55.6414 86.5344 56.146 86.7134 56.6543 86.8685C56.8354 86.9242 57.0202 86.9799 57.2051 87.0276C57.4015 87.0833 57.5979 87.135 57.7982 87.1828C58.0216 87.2345 58.2411 87.2822 58.4645 87.33C58.634 87.3658 58.8034 87.3976 58.9729 87.4254H58.9844C59.1501 87.4533 59.3118 87.4811 59.4774 87.505C59.489 87.505 59.4967 87.509 59.5082 87.509H59.5121C59.5313 87.513 59.5544 87.513 59.5737 87.5169C59.7239 87.5408 59.878 87.5567 60.0282 87.5766C60.1861 87.5965 60.344 87.6124 60.5019 87.6204C60.5481 87.6283 60.5905 87.6323 60.6367 87.6363C60.7599 87.6442 60.8793 87.6522 61.0026 87.6562C61.1258 87.6681 61.2491 87.6721 61.3723 87.6761C61.5803 87.684 61.7921 87.688 62.0001 87.688C65.7359 87.688 69.2985 86.4906 72.5568 84.4498C77.3672 81.4424 83.5024 81.7328 87.7929 85.4881C87.9893 85.6592 88.1857 85.8342 88.3783 86.0092C88.5247 86.1445 88.6672 86.2758 88.8097 86.411C89.1871 86.7651 89.5607 87.1271 89.9266 87.4971C90.1461 87.7158 90.3579 87.9386 90.5697 88.1614C90.8047 88.408 91.0319 88.6587 91.263 88.9132C91.4671 89.14 91.6713 89.3707 91.8677 89.6054C92.0025 89.7646 92.1373 89.9197 92.2682 90.0788C92.3838 90.2141 92.4954 90.3493 92.6071 90.4886C92.8575 90.7949 93.1001 91.1092 93.3389 91.4234C93.57 91.7258 93.7972 92.0281 94.0206 92.3384C94.0283 92.3503 94.036 92.3662 94.0476 92.3782C94.0591 92.3941 94.0707 92.406 94.0784 92.4219C94.2132 92.6009 94.3441 92.7879 94.4674 92.9709C94.6176 93.1817 94.7639 93.3966 94.9064 93.6154C95.0528 93.8302 95.1953 94.049 95.3339 94.2678C95.461 94.4667 95.5881 94.6656 95.7114 94.8684C95.7268 94.8963 95.7422 94.9241 95.7614 94.952C95.8462 95.0872 95.927 95.2185 96.0041 95.3577C96.1196 95.5447 96.2313 95.7357 96.3391 95.9306C96.3622 95.9664 96.3854 96.0062 96.4046 96.042C96.5086 96.217 96.6087 96.396 96.7012 96.575C96.7782 96.7023 96.8475 96.8336 96.9168 96.9649C97.0902 97.2871 97.2596 97.6133 97.4252 97.9435C97.4792 98.0509 97.5369 98.1623 97.5908 98.2737C97.6486 98.3851 97.7025 98.4965 97.7526 98.6079C97.7565 98.6158 97.7603 98.6198 97.7642 98.6277C97.768 98.6357 97.7719 98.6437 97.7757 98.6516C97.8759 98.8625 97.976 99.0733 98.0723 99.2881C98.1339 99.4154 98.1917 99.5427 98.2456 99.67C98.3727 99.9524 98.4959 100.235 98.6153 100.517C98.7309 100.788 98.8425 101.062 98.9504 101.341C99.0621 101.615 99.1699 101.894 99.2739 102.176C99.3009 102.252 99.3278 102.327 99.3548 102.407C99.4241 102.598 99.4934 102.785 99.5589 102.976C99.5666 102.992 99.5705 103.012 99.5782 103.028C99.6205 103.147 99.6629 103.27 99.7014 103.393C99.7977 103.676 99.8901 103.962 99.9826 104.253C100.075 104.543 100.164 104.838 100.248 105.132C100.318 105.379 100.387 105.621 100.452 105.872C100.503 106.055 100.553 106.238 100.599 106.425C100.614 106.473 100.626 106.524 100.637 106.576C100.649 106.624 100.66 106.671 100.672 106.723C100.676 106.739 100.68 106.751 100.684 106.767C100.734 106.962 100.784 107.161 100.826 107.36V107.364C100.83 107.38 100.834 107.399 100.838 107.419C100.845 107.447 100.853 107.479 100.857 107.507C100.911 107.734 100.961 107.96 101.007 108.191C101.049 108.394 101.092 108.597 101.13 108.804C101.165 108.967 101.196 109.126 101.223 109.289C101.273 109.548 101.315 109.806 101.358 110.069C101.361 110.097 101.369 110.128 101.369 110.16C101.411 110.411 101.45 110.661 101.485 110.916C101.504 111.035 101.519 111.155 101.535 111.278C101.577 111.564 101.612 111.851 101.643 112.141C101.681 112.483 101.716 112.83 101.746 113.176C114.853 101.591 123.156 84.3822 123.156 65.168C123.156 43.6824 112.769 24.699 96.9014 13.2898ZM64.1877 78.2281H64.1838C63.4636 78.3355 62.7357 78.3912 62.0001 78.3912C48.628 78.3912 37.7902 60.6171 37.7902 46.8052C37.7902 32.9973 48.628 21.8029 62.0001 21.8029C72.2795 21.8029 81.0645 28.4225 84.5731 37.759C85.6284 40.5636 86.2061 43.6148 86.2061 46.8052C86.2061 59.8573 76.5314 76.4419 64.1877 78.2281Z" fill="#F9A18A"/>
<path opacity="0.23" d="M34.5897 8.68323L30.3185 17.1605L25.7623 26.2067L15.7641 46.0494L10.9922 55.5252L1.77194 73.8244L1.49078 74.3853C1.06328 71.3779 0.84375 68.2988 0.84375 65.1681C0.84375 40.4602 14.5778 19.066 34.5897 8.68323Z" fill="#F2F2F2"/>
<path opacity="0.23" d="M123.156 65.168C123.156 84.3822 114.853 101.591 101.747 113.176V113.18C91.0589 122.628 77.1746 128.336 62.0001 128.336C54.5823 128.336 47.4688 126.972 40.8906 124.469L44.1297 118.037L59.5083 87.509H59.5121L64.1839 78.2281H64.1877L84.5732 37.759L96.9015 13.2898C112.769 24.699 123.156 43.6824 123.156 65.168Z" fill="#F2F2F2"/>
</g>
<defs>
<clipPath id="clip0_64_88">
<rect width="123.893" height="128.715" fill="white" transform="translate(0.788574 0.553101)"/>
</clipPath>
</defs>
</svg>
