<svg width="92" height="83" viewBox="0 0 92 83" fill="none" xmlns="http://www.w3.org/2000/svg">
<g clip-path="url(#clip0_305_82)">
<path d="M24.7649 71.7341C23.354 73.9146 23.4309 76.6048 25.8485 78.2228C27.9172 79.6041 31.5998 79.4245 33.0138 77.2425C35.9371 72.7255 41.238 69.3238 41.238 69.3238C41.238 69.3238 39.2861 65.4277 38.3624 58.1272C38.3608 58.1286 28.0909 66.5918 24.7649 71.7341Z" fill="#165954"/>
<path d="M66.4641 32.4423C60.4654 27.605 54.0301 23.2648 46.9878 19.774C46.2301 19.2546 45.3632 18.848 44.4487 18.5765C43.837 18.3523 43.2361 18.2437 42.6582 18.2284C41.6914 18.1281 40.7232 18.1727 39.8363 18.3885C37.4956 18.9566 35.9156 20.2544 35.0165 21.9058C30.6776 26.4966 27.0535 31.4857 23.8013 36.7575C20.5722 41.9875 29.4219 46.6674 32.648 41.4416C33.6563 39.8055 34.6952 38.1931 35.7803 36.6113C36.7163 42.3258 37.6508 48.0404 38.5837 53.7535C38.7728 54.912 39.3814 55.909 40.2313 56.7194C41.59 64.854 44.0845 72.8786 48.0176 80.2613C50.8871 85.65 59.7199 80.9394 56.8643 75.5758C53.9256 70.0603 51.9614 63.9545 50.7518 57.7958C53.4107 56.1179 54.3744 53.0963 53.8764 50.0413C52.9512 44.3992 52.0305 38.7542 51.1053 33.1107C53.9056 34.9418 56.6076 36.9051 59.2127 39.0063C64.1418 42.9677 71.4131 36.4275 66.4641 32.4423Z" fill="#165954"/>
<path d="M41.8882 16.1745C46.8182 16.1745 50.8148 12.5537 50.8148 8.08726C50.8148 3.62079 46.8182 0 41.8882 0C36.9581 0 32.9615 3.62079 32.9615 8.08726C32.9615 12.5537 36.9581 16.1745 41.8882 16.1745Z" fill="#165954"/>
</g>
<defs>
<clipPath id="clip0_305_82">
<rect width="91.2198" height="82.6423" fill="white"/>
</clipPath>
</defs>
</svg>
